<svg aria-hidden="true" style="position: absolute; width: 0; height: 0; overflow: hidden;" version="1.1" xmlns="http://www.w3.org/2000/svg" xmlns:xlink="http://www.w3.org/1999/xlink">
<defs>
<symbol id="icon-arrow" viewBox="0 0 40 32">
<path d="M39.436 17.075c0.767-0.795 0.745-2.061-0.049-2.828l-12.948-12.504c-0.794-0.767-2.061-0.745-2.828 0.049s-0.745 2.061 0.049 2.828l11.509 11.115-11.114 11.509c-0.767 0.795-0.745 2.061 0.049 2.828s2.061 0.745 2.828-0.049l12.504-12.948zM2.037 18.314l35.995-0.628-0.070-3.999-35.995 0.628 0.070 3.999z"></path>
</symbol>
<symbol id="icon-filter_open" viewBox="0 0 40 32">
<path d="M1 1.5L6 6.5L11 1.5" stroke="#FBFBFB" stroke-width="2" stroke-linecap="round" stroke-linejoin="round"/>
</symbol>
<symbol id="icon-close" viewBox="0 0 40 32">
<path d="M24 8L8 24" stroke="#11101C" stroke-width="4" stroke-linecap="round" stroke-linejoin="round"/>
<path d="M8 8L24 24" stroke="#11101C" stroke-width="4" stroke-linecap="round" stroke-linejoin="round"/>
</symbol>
<symbol id="icon-check" viewBox="0 0 40 32">
<path fill-rule="evenodd" clip-rule="evenodd" d="M2.5 5.5L0 8L7.5 15.5L20 3L17.5 0.5L7.5 10.5L2.5 5.5Z" fill="#FBFBFB"/>
</symbol>
<symbol id="icon-clock" viewBox="0 0 32 32">
<path stroke-linejoin="round" stroke-linecap="round" stroke-miterlimit="4" stroke-width="2.4" d="M16 29.333c7.364 0 13.333-5.97 13.333-13.333s-5.969-13.333-13.333-13.333c-7.364 0-13.333 5.97-13.333 13.333s5.97 13.333 13.333 13.333z"></path>
<path stroke-linejoin="round" stroke-linecap="round" stroke-miterlimit="4" stroke-width="2.4" d="M16 8v8l5.333 2.667"></path>
</symbol>
<symbol id="icon-eye" viewBox="0 0 32 32">
<path stroke-linejoin="round" stroke-linecap="round" stroke-miterlimit="4" stroke-width="3.2" d="M1.333 16c0 0 5.333-10.667 14.667-10.667s14.667 10.667 14.667 10.667c0 0-5.333 10.667-14.667 10.667s-14.667-10.667-14.667-10.667z"></path>
<path stroke-linejoin="round" stroke-linecap="round" stroke-miterlimit="4" stroke-width="3.2" d="M16 20c2.209 0 4-1.791 4-4s-1.791-4-4-4c-2.209 0-4 1.791-4 4s1.791 4 4 4z"></path>
</symbol>
<symbol id="icon-eye-off" viewBox="0 0 32 32">
<path stroke-linejoin="round" stroke-linecap="round" stroke-miterlimit="4" stroke-width="3.2" d="M23.92 23.92c-2.279 1.737-5.055 2.7-7.92 2.747-9.333 0-14.667-10.667-14.667-10.667 1.659-3.091 3.959-5.791 6.747-7.92M13.2 5.653c0.918-0.215 1.857-0.322 2.8-0.32 9.333 0 14.667 10.667 14.667 10.667-0.809 1.514-1.775 2.94-2.88 4.253M18.827 18.827c-0.366 0.393-0.808 0.708-1.298 0.927s-1.020 0.336-1.557 0.346-1.071-0.089-1.569-0.291c-0.498-0.201-0.95-0.5-1.33-0.88s-0.679-0.832-0.88-1.33c-0.201-0.498-0.3-1.032-0.29-1.569s0.127-1.067 0.346-1.557 0.534-0.932 0.927-1.298"></path>
<path stroke-linejoin="round" stroke-linecap="round" stroke-miterlimit="4" stroke-width="3.2" d="M1.333 1.333l29.333 29.333"></path>
</symbol>
<symbol id="icon-heart" viewBox="0 0 38 32">
<path stroke-linejoin="round" stroke-linecap="round" stroke-miterlimit="4" stroke-width="2.9091" d="M32.839 4.355c-0.805-0.805-1.76-1.444-2.812-1.88s-2.179-0.66-3.318-0.66c-1.138 0-2.266 0.224-3.318 0.66s-2.007 1.075-2.812 1.88l-1.67 1.67-1.67-1.67c-1.626-1.626-3.831-2.539-6.13-2.539s-4.504 0.913-6.13 2.539c-1.626 1.626-2.539 3.831-2.539 6.13s0.913 4.504 2.539 6.13l13.93 13.93 13.93-13.93c0.805-0.805 1.444-1.76 1.88-2.812s0.66-2.179 0.66-3.318-0.224-2.266-0.66-3.318c-0.436-1.052-1.074-2.007-1.88-2.812z"></path>
</symbol>
<symbol id="icon-location" viewBox="0 0 32 32">
<path stroke-linejoin="round" stroke-linecap="round" stroke-miterlimit="4" stroke-width="3" d="M28 13.333c0 9.333-12 17.333-12 17.333s-12-8-12-17.333c0-3.183 1.264-6.235 3.515-8.485s5.303-3.515 8.485-3.515c3.183 0 6.235 1.264 8.485 3.515s3.515 5.303 3.515 8.485z"></path>
<path stroke-linejoin="round" stroke-linecap="round" stroke-miterlimit="4" stroke-width="3" d="M16 17.333c2.209 0 4-1.791 4-4s-1.791-4-4-4c-2.209 0-4 1.791-4 4s1.791 4 4 4z"></path>
</symbol>
<symbol id="icon-logo" viewBox="0 0 187 32">
<path d="M1.947 6.702h3.621l8.942 14.427h0.055v-14.427h3.264v19.584h-3.621l-8.914-14.4h-0.082v14.4h-3.264v-19.584zM32.768 23.131c0 0.384 0.046 0.658 0.137 0.823 0.11 0.165 0.311 0.247 0.603 0.247 0.091 0 0.201 0 0.329 0s0.274-0.018 0.439-0.055v2.167c-0.11 0.037-0.256 0.073-0.439 0.11-0.165 0.055-0.338 0.101-0.521 0.137s-0.366 0.064-0.549 0.082c-0.183 0.018-0.338 0.027-0.466 0.027-0.64 0-1.17-0.128-1.591-0.384s-0.695-0.704-0.823-1.344c-0.622 0.603-1.39 1.042-2.304 1.317-0.896 0.274-1.765 0.411-2.606 0.411-0.64 0-1.253-0.091-1.838-0.274-0.585-0.165-1.106-0.411-1.563-0.741-0.439-0.347-0.795-0.777-1.070-1.289-0.256-0.53-0.384-1.143-0.384-1.838 0-0.878 0.155-1.591 0.466-2.139 0.329-0.549 0.75-0.978 1.262-1.289 0.53-0.311 1.115-0.53 1.755-0.658 0.658-0.146 1.317-0.256 1.975-0.329 0.567-0.11 1.106-0.183 1.618-0.219 0.512-0.055 0.96-0.137 1.344-0.247 0.402-0.11 0.713-0.274 0.933-0.494 0.238-0.238 0.357-0.585 0.357-1.042 0-0.402-0.101-0.731-0.302-0.987-0.183-0.256-0.421-0.448-0.713-0.576-0.274-0.146-0.585-0.238-0.933-0.274-0.347-0.055-0.677-0.082-0.987-0.082-0.878 0-1.6 0.183-2.167 0.549s-0.887 0.933-0.96 1.701h-3.127c0.055-0.914 0.274-1.673 0.658-2.277s0.869-1.088 1.454-1.454c0.603-0.366 1.28-0.622 2.030-0.768s1.518-0.219 2.304-0.219c0.695 0 1.381 0.073 2.057 0.219s1.28 0.384 1.81 0.713c0.549 0.329 0.987 0.759 1.317 1.289 0.329 0.512 0.494 1.143 0.494 1.893v7.296zM29.642 19.182c-0.475 0.311-1.061 0.503-1.755 0.576-0.695 0.055-1.39 0.146-2.085 0.274-0.329 0.055-0.649 0.137-0.96 0.247-0.311 0.091-0.585 0.229-0.823 0.411-0.238 0.165-0.43 0.393-0.576 0.686-0.128 0.274-0.192 0.613-0.192 1.015 0 0.347 0.101 0.64 0.302 0.878s0.439 0.43 0.713 0.576c0.293 0.128 0.603 0.219 0.933 0.274 0.347 0.055 0.658 0.082 0.933 0.082 0.347 0 0.722-0.046 1.125-0.137s0.777-0.247 1.125-0.466c0.366-0.219 0.667-0.494 0.905-0.823 0.238-0.347 0.357-0.768 0.357-1.262v-2.331zM35.584 12.105h2.962v2.085l0.055 0.055c0.475-0.786 1.097-1.399 1.865-1.838 0.768-0.457 1.618-0.686 2.551-0.686 1.554 0 2.779 0.402 3.675 1.207s1.344 2.011 1.344 3.621v9.737h-3.127v-8.914c-0.037-1.115-0.274-1.92-0.713-2.414-0.439-0.512-1.125-0.768-2.057-0.768-0.53 0-1.006 0.101-1.426 0.302-0.421 0.183-0.777 0.448-1.070 0.795-0.293 0.329-0.521 0.722-0.686 1.179s-0.247 0.942-0.247 1.454v8.366h-3.127v-14.181zM50.786 12.105h2.962v2.085l0.055 0.055c0.475-0.786 1.097-1.399 1.865-1.838 0.768-0.457 1.618-0.686 2.551-0.686 1.554 0 2.779 0.402 3.675 1.207s1.344 2.011 1.344 3.621v9.737h-3.127v-8.914c-0.037-1.115-0.274-1.92-0.713-2.414-0.439-0.512-1.125-0.768-2.057-0.768-0.53 0-1.006 0.101-1.426 0.302-0.421 0.183-0.777 0.448-1.070 0.795-0.293 0.329-0.521 0.722-0.686 1.179s-0.247 0.942-0.247 1.454v8.366h-3.127v-14.181zM64.424 12.105h3.429l3.703 10.587h0.055l3.593-10.587h3.264l-5.513 14.949c-0.256 0.64-0.512 1.253-0.768 1.838-0.238 0.585-0.539 1.097-0.905 1.536-0.347 0.457-0.786 0.814-1.317 1.070-0.53 0.274-1.207 0.411-2.030 0.411-0.731 0-1.454-0.055-2.167-0.165v-2.633c0.256 0.037 0.503 0.073 0.741 0.11 0.238 0.055 0.485 0.082 0.741 0.082 0.366 0 0.667-0.046 0.905-0.137s0.43-0.229 0.576-0.411c0.165-0.165 0.302-0.366 0.411-0.603s0.21-0.512 0.302-0.823l0.357-1.097-5.376-14.126zM77.391 22.583h3.813v3.703h-3.813v-3.703zM86.917 19.758c0 0.75 0.128 1.39 0.384 1.92s0.613 0.969 1.070 1.317c0.457 0.329 0.978 0.576 1.563 0.741 0.603 0.146 1.253 0.219 1.947 0.219 0.75 0 1.39-0.082 1.92-0.247 0.53-0.183 0.96-0.411 1.289-0.686s0.567-0.585 0.713-0.933c0.146-0.366 0.219-0.731 0.219-1.097 0-0.75-0.174-1.298-0.521-1.646-0.329-0.366-0.695-0.622-1.097-0.768-0.695-0.256-1.509-0.494-2.441-0.713-0.914-0.238-2.048-0.539-3.401-0.905-0.841-0.219-1.545-0.503-2.112-0.85-0.549-0.366-0.987-0.768-1.317-1.207s-0.567-0.905-0.713-1.399c-0.128-0.494-0.192-0.997-0.192-1.509 0-0.987 0.201-1.838 0.603-2.551 0.421-0.731 0.969-1.335 1.646-1.81s1.445-0.823 2.304-1.042c0.859-0.238 1.728-0.357 2.606-0.357 1.024 0 1.984 0.137 2.88 0.411 0.914 0.256 1.71 0.649 2.386 1.179 0.695 0.53 1.243 1.189 1.646 1.975 0.402 0.768 0.603 1.664 0.603 2.688h-3.429c-0.091-1.262-0.521-2.149-1.289-2.661-0.768-0.53-1.746-0.795-2.935-0.795-0.402 0-0.814 0.046-1.234 0.137-0.421 0.073-0.805 0.21-1.152 0.411-0.347 0.183-0.64 0.439-0.878 0.768-0.219 0.329-0.329 0.741-0.329 1.234 0 0.695 0.21 1.243 0.631 1.646 0.439 0.384 1.006 0.677 1.701 0.878 0.073 0.018 0.357 0.101 0.85 0.247 0.512 0.128 1.079 0.274 1.701 0.439s1.225 0.329 1.81 0.494c0.603 0.146 1.033 0.256 1.289 0.329 0.64 0.201 1.198 0.475 1.673 0.823s0.869 0.75 1.179 1.207c0.329 0.439 0.567 0.914 0.713 1.426 0.165 0.512 0.247 1.024 0.247 1.536 0 1.097-0.229 2.039-0.686 2.825-0.439 0.768-1.024 1.399-1.755 1.893s-1.563 0.85-2.496 1.070c-0.933 0.238-1.883 0.357-2.853 0.357-1.115 0-2.167-0.137-3.154-0.411s-1.847-0.695-2.578-1.262c-0.731-0.567-1.317-1.289-1.755-2.167-0.439-0.896-0.667-1.947-0.686-3.154h3.429zM111.204 17.947c-0.037-0.494-0.146-0.969-0.329-1.426-0.165-0.457-0.402-0.85-0.713-1.179-0.293-0.347-0.658-0.622-1.097-0.823-0.421-0.219-0.896-0.329-1.426-0.329-0.549 0-1.051 0.101-1.509 0.302-0.439 0.183-0.823 0.448-1.152 0.795-0.311 0.329-0.567 0.722-0.768 1.179-0.183 0.457-0.283 0.951-0.302 1.481h7.296zM103.908 20.005c0 0.549 0.073 1.079 0.219 1.591 0.165 0.512 0.402 0.96 0.713 1.344s0.704 0.695 1.179 0.933c0.475 0.219 1.042 0.329 1.701 0.329 0.914 0 1.646-0.192 2.194-0.576 0.567-0.402 0.987-0.997 1.262-1.783h2.962c-0.165 0.768-0.448 1.454-0.85 2.057s-0.887 1.115-1.454 1.536c-0.567 0.402-1.207 0.704-1.92 0.905-0.695 0.219-1.426 0.329-2.194 0.329-1.115 0-2.103-0.183-2.962-0.549s-1.591-0.878-2.194-1.536c-0.585-0.658-1.033-1.445-1.344-2.359-0.293-0.914-0.439-1.92-0.439-3.017 0-1.006 0.155-1.957 0.466-2.853 0.329-0.914 0.786-1.71 1.371-2.386 0.603-0.695 1.326-1.243 2.167-1.646s1.792-0.603 2.853-0.603c1.115 0 2.112 0.238 2.99 0.713 0.896 0.457 1.637 1.070 2.222 1.838s1.006 1.655 1.262 2.661c0.274 0.987 0.347 2.011 0.219 3.072h-10.423zM116.159 12.105h2.935v2.743h0.055c0.091-0.384 0.265-0.759 0.521-1.125 0.274-0.366 0.594-0.695 0.96-0.987 0.384-0.311 0.805-0.558 1.262-0.741s0.923-0.274 1.399-0.274c0.366 0 0.613 0.009 0.741 0.027 0.146 0.018 0.293 0.037 0.439 0.055v3.017c-0.219-0.037-0.448-0.064-0.686-0.082-0.219-0.037-0.439-0.055-0.658-0.055-0.53 0-1.033 0.11-1.509 0.329-0.457 0.201-0.859 0.512-1.207 0.933-0.347 0.402-0.622 0.905-0.823 1.509s-0.302 1.298-0.302 2.085v6.747h-3.127v-14.181zM123.855 12.105h3.401l3.593 10.889h0.055l3.456-10.889h3.237l-5.074 14.181h-3.511l-5.157-14.181zM139.010 6.702h3.127v2.962h-3.127v-2.962zM139.010 12.105h3.127v14.181h-3.127v-14.181zM154.568 16.85c-0.128-0.878-0.485-1.536-1.070-1.975-0.567-0.457-1.289-0.686-2.167-0.686-0.402 0-0.832 0.073-1.289 0.219-0.457 0.128-0.878 0.384-1.262 0.768-0.384 0.366-0.704 0.887-0.96 1.563-0.256 0.658-0.384 1.527-0.384 2.606 0 0.585 0.064 1.17 0.192 1.755 0.146 0.585 0.366 1.106 0.658 1.563 0.311 0.457 0.704 0.832 1.179 1.125 0.475 0.274 1.051 0.411 1.728 0.411 0.914 0 1.664-0.283 2.249-0.85 0.603-0.567 0.978-1.362 1.125-2.386h3.127c-0.293 1.847-0.997 3.264-2.112 4.251-1.097 0.969-2.56 1.454-4.389 1.454-1.115 0-2.103-0.183-2.962-0.549-0.841-0.384-1.554-0.896-2.139-1.536-0.585-0.658-1.033-1.435-1.344-2.331-0.293-0.896-0.439-1.865-0.439-2.907 0-1.061 0.146-2.057 0.439-2.99s0.731-1.737 1.317-2.414c0.585-0.695 1.307-1.234 2.167-1.618 0.878-0.402 1.902-0.603 3.072-0.603 0.823 0 1.6 0.11 2.331 0.329 0.75 0.201 1.408 0.512 1.975 0.933 0.585 0.421 1.061 0.951 1.426 1.591s0.585 1.399 0.658 2.277h-3.127zM169.425 17.947c-0.037-0.494-0.146-0.969-0.329-1.426-0.165-0.457-0.402-0.85-0.713-1.179-0.293-0.347-0.658-0.622-1.097-0.823-0.421-0.219-0.896-0.329-1.426-0.329-0.549 0-1.051 0.101-1.509 0.302-0.439 0.183-0.823 0.448-1.152 0.795-0.311 0.329-0.567 0.722-0.768 1.179-0.183 0.457-0.283 0.951-0.302 1.481h7.296zM162.129 20.005c0 0.549 0.073 1.079 0.219 1.591 0.165 0.512 0.402 0.96 0.713 1.344s0.704 0.695 1.179 0.933c0.475 0.219 1.042 0.329 1.701 0.329 0.914 0 1.646-0.192 2.194-0.576 0.567-0.402 0.987-0.997 1.262-1.783h2.962c-0.165 0.768-0.448 1.454-0.85 2.057s-0.887 1.115-1.454 1.536c-0.567 0.402-1.207 0.704-1.92 0.905-0.695 0.219-1.426 0.329-2.194 0.329-1.115 0-2.103-0.183-2.962-0.549s-1.591-0.878-2.194-1.536c-0.585-0.658-1.033-1.445-1.344-2.359-0.293-0.914-0.439-1.92-0.439-3.017 0-1.006 0.155-1.957 0.466-2.853 0.329-0.914 0.786-1.71 1.371-2.386 0.603-0.695 1.326-1.243 2.167-1.646s1.792-0.603 2.853-0.603c1.115 0 2.112 0.238 2.99 0.713 0.896 0.457 1.637 1.070 2.222 1.838s1.006 1.655 1.262 2.661c0.274 0.987 0.347 2.011 0.219 3.072h-10.423zM176.739 21.733c0.091 0.914 0.439 1.554 1.042 1.92s1.326 0.549 2.167 0.549c0.293 0 0.622-0.018 0.987-0.055 0.384-0.055 0.741-0.146 1.070-0.274s0.594-0.311 0.795-0.549c0.219-0.256 0.32-0.585 0.302-0.987s-0.165-0.731-0.439-0.987c-0.274-0.256-0.631-0.457-1.070-0.603-0.421-0.165-0.905-0.302-1.454-0.411s-1.106-0.229-1.673-0.357c-0.585-0.128-1.152-0.283-1.701-0.466-0.53-0.183-1.015-0.43-1.454-0.741-0.421-0.311-0.759-0.704-1.015-1.179-0.256-0.494-0.384-1.097-0.384-1.81 0-0.768 0.183-1.408 0.549-1.92 0.384-0.53 0.859-0.951 1.426-1.262 0.585-0.329 1.225-0.558 1.92-0.686 0.713-0.128 1.39-0.192 2.030-0.192 0.731 0 1.426 0.082 2.085 0.247 0.677 0.146 1.28 0.393 1.81 0.741 0.549 0.347 0.997 0.805 1.344 1.371 0.366 0.549 0.594 1.216 0.686 2.002h-3.264c-0.146-0.75-0.494-1.253-1.042-1.509-0.53-0.256-1.143-0.384-1.838-0.384-0.219 0-0.485 0.018-0.795 0.055-0.293 0.037-0.576 0.11-0.85 0.219-0.256 0.091-0.475 0.238-0.658 0.439-0.183 0.183-0.274 0.43-0.274 0.741 0 0.384 0.128 0.695 0.384 0.933 0.274 0.238 0.622 0.439 1.042 0.603 0.439 0.146 0.933 0.274 1.481 0.384s1.115 0.229 1.701 0.357c0.567 0.128 1.125 0.283 1.673 0.466s1.033 0.43 1.454 0.741c0.439 0.311 0.786 0.704 1.042 1.179 0.274 0.475 0.411 1.061 0.411 1.755 0 0.841-0.192 1.554-0.576 2.139s-0.887 1.061-1.509 1.426c-0.603 0.366-1.28 0.631-2.030 0.795s-1.49 0.247-2.222 0.247c-0.896 0-1.728-0.101-2.496-0.302-0.75-0.201-1.408-0.503-1.975-0.905-0.549-0.421-0.987-0.933-1.317-1.536-0.311-0.622-0.475-1.353-0.494-2.194h3.127z"></path>
</symbol>
<symbol id="icon-open" viewBox="0 0 48 32">
<path stroke-linejoin="round" stroke-linecap="round" stroke-miterlimit="4" stroke-width="8" d="M4 6l20 20 20-20"></path>
</symbol>
<symbol id="icon-star" viewBox="0 0 34 32">
<path stroke-linejoin="miter" stroke-linecap="butt" stroke-miterlimit="4" stroke-width="2.56" d="M13.227 10.020l3.84-7.277 3.84 7.277c0.34 0.644 0.959 1.093 1.675 1.217l8.108 1.403-5.735 5.9c-0.507 0.522-0.744 1.249-0.64 1.97l1.171 8.144-7.384-3.631c-0.653-0.321-1.418-0.321-2.071 0l-7.384 3.631 1.171-8.144c0.104-0.72-0.133-1.448-0.64-1.97l-5.735-5.9 8.108-1.403c0.717-0.124 1.336-0.574 1.675-1.217zM30.971 12.35v0zM8.285 28.833c0 0 0 0 0 0h-0z"></path>
</symbol>
<symbol id="icon-user" viewBox="0 0 32 32">
<path d="M16 0c2.122 0 4.157 0.843 5.657 2.343s2.343 3.535 2.343 5.657-0.843 4.157-2.343 5.657c-1.5 1.5-3.535 2.343-5.657 2.343s-4.157-0.843-5.657-2.343c-1.5-1.5-2.343-3.535-2.343-5.657s0.843-4.157 2.343-5.657c1.5-1.5 3.535-2.343 5.657-2.343zM16 20c8.84 0 16 3.58 16 8v4h-32v-4c0-4.42 7.16-8 16-8z"></path>
</symbol>
</defs>
</svg>
